<mxfile host="app.diagrams.net" modified="2023-03-05T07:39:28.107Z" agent="5.0 (Macintosh; Intel Mac OS X 10_15_7) AppleWebKit/537.36 (KHTML, like Gecko) Chrome/110.0.0.0 Safari/537.36" etag="cVEI-QgXUbCsWzI3JEfD" version="21.0.2" type="github">
  <diagram name="Page-1" id="uvkj1BeaDvD7j4WTEYFt">
    <mxGraphModel dx="954" dy="689" grid="1" gridSize="10" guides="1" tooltips="1" connect="1" arrows="1" fold="1" page="1" pageScale="1" pageWidth="827" pageHeight="1169" math="0" shadow="0">
      <root>
        <mxCell id="0" />
        <mxCell id="1" parent="0" />
        <mxCell id="NNADi5nBatgXpOKhGbm0-4" style="edgeStyle=orthogonalEdgeStyle;rounded=0;orthogonalLoop=1;jettySize=auto;html=1;entryX=0;entryY=0.5;entryDx=0;entryDy=0;" edge="1" parent="1" source="NNADi5nBatgXpOKhGbm0-1" target="NNADi5nBatgXpOKhGbm0-2">
          <mxGeometry relative="1" as="geometry" />
        </mxCell>
        <mxCell id="NNADi5nBatgXpOKhGbm0-1" value="Input Data" style="rounded=0;whiteSpace=wrap;html=1;" vertex="1" parent="1">
          <mxGeometry x="100" y="210" width="120" height="60" as="geometry" />
        </mxCell>
        <mxCell id="NNADi5nBatgXpOKhGbm0-5" style="edgeStyle=orthogonalEdgeStyle;rounded=0;orthogonalLoop=1;jettySize=auto;html=1;entryX=0;entryY=0.5;entryDx=0;entryDy=0;" edge="1" parent="1" source="NNADi5nBatgXpOKhGbm0-2" target="NNADi5nBatgXpOKhGbm0-3">
          <mxGeometry relative="1" as="geometry" />
        </mxCell>
        <mxCell id="NNADi5nBatgXpOKhGbm0-2" value="Process" style="ellipse;whiteSpace=wrap;html=1;" vertex="1" parent="1">
          <mxGeometry x="354" y="200" width="120" height="80" as="geometry" />
        </mxCell>
        <mxCell id="NNADi5nBatgXpOKhGbm0-3" value="Output&lt;br&gt;" style="rounded=0;whiteSpace=wrap;html=1;" vertex="1" parent="1">
          <mxGeometry x="640" y="210" width="120" height="60" as="geometry" />
        </mxCell>
        <mxCell id="NNADi5nBatgXpOKhGbm0-6" value="" style="endArrow=classic;startArrow=classic;html=1;rounded=0;exitX=0.5;exitY=1;exitDx=0;exitDy=0;entryX=0.5;entryY=1;entryDx=0;entryDy=0;" edge="1" parent="1" source="NNADi5nBatgXpOKhGbm0-1" target="NNADi5nBatgXpOKhGbm0-3">
          <mxGeometry width="50" height="50" relative="1" as="geometry">
            <mxPoint x="460" y="370" as="sourcePoint" />
            <mxPoint x="510" y="320" as="targetPoint" />
            <Array as="points">
              <mxPoint x="400" y="480" />
            </Array>
          </mxGeometry>
        </mxCell>
        <mxCell id="NNADi5nBatgXpOKhGbm0-7" value="Program" style="rounded=1;whiteSpace=wrap;html=1;" vertex="1" parent="1">
          <mxGeometry x="340" y="480" width="120" height="60" as="geometry" />
        </mxCell>
      </root>
    </mxGraphModel>
  </diagram>
</mxfile>
